<svg id="Layer_3" data-name="Layer 3" xmlns="http://www.w3.org/2000/svg" viewBox="0 0 530.82 496.89"><defs><style>.cls-1{fill:#1a4686;}</style></defs><path class="cls-1" d="M495.29,137.11H445.36V125.47a76.29,76.29,0,0,0-76.11-76.28H226.07a76.37,76.37,0,0,0-76.28,76.28v11.64H100a67.83,67.83,0,0,0-67.74,67.76V478.33A67.82,67.82,0,0,0,100,546.08H495.29a67.83,67.83,0,0,0,67.76-67.75V204.87A67.84,67.84,0,0,0,495.29,137.11ZM196,125.47a30.08,30.08,0,0,1,30-30H369.25a30,30,0,0,1,29.88,30.05v11.64H196Zm320.8,352.86a21.54,21.54,0,0,1-21.53,21.52H100a21.54,21.54,0,0,1-21.51-21.52V204.87A21.54,21.54,0,0,1,100,183.34H495.29a21.54,21.54,0,0,1,21.53,21.53Z" transform="translate(-32.23 -49.19)"/></svg>