<svg id="Group_878" data-name="Group 878" xmlns="http://www.w3.org/2000/svg" xmlns:xlink="http://www.w3.org/1999/xlink" width="135" height="33.912" viewBox="0 0 135 33.912">
  <defs>
    <clipPath id="clip-path">
      <rect id="Rectangle_633" data-name="Rectangle 633" width="135" height="33.912" fill="#ef5122"/>
    </clipPath>
  </defs>
  <g id="Group_877" data-name="Group 877" clip-path="url(#clip-path)">
    <path id="Path_478" data-name="Path 478" d="M876.321,24.994a11.339,11.339,0,0,0,.5-1.364,9.088,9.088,0,0,0,.418-2.332q.1-4.529.066-9.06A11.672,11.672,0,0,0,874.015,3.7,11.43,11.43,0,0,0,866.049.04c-2.733-.079-5.47-.017-8.2-.017v0c-2.336,0-4.674-.027-7.01.011A22.238,22.238,0,0,0,847.554.3,11.928,11.928,0,0,0,837.94,11.21c-.1,3.056-.066,6.115-.075,9.173a10.476,10.476,0,0,0,.122,1.815,13.237,13.237,0,0,0,1.755,4.543,12.07,12.07,0,0,0,10.516,6.241c1.48.048,2.963.013,4.444-.01,3.816-.059,7.643.01,11.444-.253a11.156,11.156,0,0,0,1.863-.286,5.247,5.247,0,0,0,3.684,1.479,5.774,5.774,0,0,0,5.638-5.637,5.986,5.986,0,0,0-1.01-3.28m-10.074,3.453c0,.141.009.28.022.42a9.7,9.7,0,0,1-1.381.13c-5.031.121-10.069.22-15.094.057a7.687,7.687,0,0,1-6.871-4.8,9.912,9.912,0,0,1-1-4.289q-.007-4.189-.013-8.376a7.657,7.657,0,0,1,6.668-7.327c1.186-.123,2.385-.129,3.58-.144,1.841-.023,3.684-.006,5.526-.006v.032c2.678,0,5.36-.09,8.033.024a7.449,7.449,0,0,1,6.864,4.814,8.262,8.262,0,0,1,.686,3.491c-.029,2.62.122,5.251-.043,7.861a11.713,11.713,0,0,1-.361,2.25,5.452,5.452,0,0,0-1.286-.14,5.711,5.711,0,0,0-5.326,6.009m8.905.073a.339.339,0,0,1-.339.339h-2.341V31.2a.341.341,0,0,1-.341.341h-.685a.341.341,0,0,1-.342-.341V28.858h-2.34a.339.339,0,0,1-.34-.339v-.69a.339.339,0,0,1,.34-.34h2.34V25.153a.342.342,0,0,1,.342-.342h.685a.341.341,0,0,1,.341.342V27.49h2.341a.115.115,0,0,1,.029,0,.338.338,0,0,1,.31.337Zm-6.663-15.1a3.425,3.425,0,0,1-3.344,3.344,3.279,3.279,0,0,1-3.231-3.242,3.388,3.388,0,0,1,3.159-3.565,3.453,3.453,0,0,1,3.416,3.463m-15.5-.047a3.254,3.254,0,1,1-6.5-.062,3.29,3.29,0,0,1,3.374-3.385,3.153,3.153,0,0,1,3.13,3.447m9.237,8.339a5.105,5.105,0,0,1-4.863,2.958,5.6,5.6,0,0,1-4.57-2.581,1.461,1.461,0,0,1,.466-2.083,1.066,1.066,0,0,1,1.444.158c1.738,1.642,3.441,1.71,5.326.147a1.318,1.318,0,0,1,1.965.107,1.015,1.015,0,0,1,.233,1.294" transform="translate(-742.332 0)" fill="#ef5122"/>
    <path id="Path_479" data-name="Path 479" d="M93.017,64.018H85.85a9.831,9.831,0,0,1-4.5,1.083H9.866A9.866,9.866,0,0,1,0,55.235v-5.79a9.866,9.866,0,0,1,9.866-9.866H81.349a9.866,9.866,0,0,1,9.866,9.866v5.79a9.829,9.829,0,0,1-.9,4.112ZM22.42,47.525H20.6v3.422q0,.694.073,1.838h-.031l-2.754-5.26H15.213v7.569h1.812V51.683q0-.663-.1-1.921h.047l2.765,5.332H22.42ZM27.98,55.1a3.57,3.57,0,0,0,.984-.336V53.313a4.855,4.855,0,0,1-.971.344,4.458,4.458,0,0,1-.981.1,1.409,1.409,0,0,1-.924-.28,1,1,0,0,1-.36-.771h3.619v-.9a2.626,2.626,0,0,0-.722-1.991,2.844,2.844,0,0,0-2.047-.691,2.807,2.807,0,0,0-2.143.795,3.2,3.2,0,0,0-.751,2.281,2.934,2.934,0,0,0,.81,2.218,3.149,3.149,0,0,0,2.275.779A6.8,6.8,0,0,0,27.98,55.1m-.712-4.349a1.01,1.01,0,0,1,.241.678h-1.74a1.057,1.057,0,0,1,.282-.707.842.842,0,0,1,.6-.225.8.8,0,0,1,.619.254M34.534,55.1a3.57,3.57,0,0,0,.984-.336V53.313a4.855,4.855,0,0,1-.971.344,4.458,4.458,0,0,1-.981.1,1.409,1.409,0,0,1-.924-.28,1,1,0,0,1-.36-.771H35.9v-.9a2.626,2.626,0,0,0-.722-1.991,2.844,2.844,0,0,0-2.047-.691,2.807,2.807,0,0,0-2.143.795,3.2,3.2,0,0,0-.751,2.281,2.934,2.934,0,0,0,.81,2.218,3.149,3.149,0,0,0,2.275.779,6.8,6.8,0,0,0,1.211-.093m-.712-4.349a1.01,1.01,0,0,1,.241.678h-1.74a1.057,1.057,0,0,1,.282-.707.842.842,0,0,1,.6-.225.8.8,0,0,1,.619.254m6.6,3.6H40.5l.435.74h1.527V47.039h-2.04v1.569a9.709,9.709,0,0,0,.1,1.377h-.042a1.906,1.906,0,0,0-.676-.663,1.811,1.811,0,0,0-.862-.2,1.834,1.834,0,0,0-1.579.808,3.8,3.8,0,0,0-.575,2.237,4.667,4.667,0,0,0,.256,1.62,2.264,2.264,0,0,0,.725,1.051,1.755,1.755,0,0,0,1.095.357,1.715,1.715,0,0,0,1.558-.844m-1.367-1.113a1.984,1.984,0,0,1-.223-1.041,2.133,2.133,0,0,1,.22-1.069.684.684,0,0,1,.619-.375.784.784,0,0,1,.7.329A2.051,2.051,0,0,1,40.6,52.19v.16a1.841,1.841,0,0,1-.215.942.756.756,0,0,1-.686.305.708.708,0,0,1-.637-.357m14.164-5.715H51.168v2.806H48.792V47.525H46.736v7.569h2.055V52.009h2.376v3.085h2.055Zm5.56,7.579a3.573,3.573,0,0,0,.984-.336V53.313a4.86,4.86,0,0,1-.971.344,4.458,4.458,0,0,1-.981.1,1.409,1.409,0,0,1-.924-.28,1,1,0,0,1-.36-.771H60.15v-.9a2.626,2.626,0,0,0-.722-1.991,2.844,2.844,0,0,0-2.048-.691,2.807,2.807,0,0,0-2.143.795,3.2,3.2,0,0,0-.751,2.281,2.934,2.934,0,0,0,.81,2.218,3.148,3.148,0,0,0,2.275.779,6.8,6.8,0,0,0,1.211-.093m-.712-4.349a1.009,1.009,0,0,1,.241.678H56.573a1.057,1.057,0,0,1,.282-.707.841.841,0,0,1,.6-.225.794.794,0,0,1,.619.254m5.247-3.717H61.294v8.055h2.024Zm6.49,7.344a3.806,3.806,0,0,0,.577-2.234,3.869,3.869,0,0,0-.554-2.216,1.754,1.754,0,0,0-1.527-.808,1.774,1.774,0,0,0-1.558.849h-.093l-.285-.746H64.722v8.413h2.024V55.286a7.459,7.459,0,0,0-.093-.766h.093a1.826,1.826,0,0,0,1.5.678,1.821,1.821,0,0,0,1.566-.815m-1.659-3.339a2.446,2.446,0,0,1,.176,1.085,2.53,2.53,0,0,1-.176,1.105.593.593,0,0,1-.564.334.689.689,0,0,1-.637-.336,2.217,2.217,0,0,1-.2-1.092v-.161a2.085,2.085,0,0,1,.194-.945.654.654,0,0,1,.624-.318.612.612,0,0,1,.585.329m5.809,1.38v-.264a.58.58,0,0,1,.137-.386,3.615,3.615,0,0,1,.681-.515,2.982,2.982,0,0,0,.935-.867A1.974,1.974,0,0,0,76,49.306a1.653,1.653,0,0,0-.657-1.382,2.9,2.9,0,0,0-1.812-.507,5.359,5.359,0,0,0-2.692.735l.72,1.408a4.031,4.031,0,0,1,1.827-.554.934.934,0,0,1,.513.127.391.391,0,0,1,.2.344.722.722,0,0,1-.184.487,2.763,2.763,0,0,1-.6.476,2.17,2.17,0,0,0-.735.681,1.654,1.654,0,0,0-.207.857v.445Zm-1.522,2.545a1.17,1.17,0,0,0,.8.256,1.129,1.129,0,0,0,.784-.259.932.932,0,0,0,.287-.73.959.959,0,0,0-.277-.733,1.115,1.115,0,0,0-.795-.261,1.154,1.154,0,0,0-.815.259.958.958,0,0,0-.277.735.926.926,0,0,0,.29.733" transform="translate(0 -35.066)" fill="#ef5122"/>
  </g>
</svg>
