<?xml version="1.0" encoding="UTF-8"?>
<svg id="Layer_2" data-name="Layer 2" xmlns="http://www.w3.org/2000/svg" viewBox="0 0 27.36 21.72">
  <defs>
    <style>
      .cls-1 {
        fill: #18457e;
        stroke-width: 0px;
      }
    </style>
  </defs>
  <g id="Layer_1-2" data-name="Layer 1">
    <g id="envelope">
      <path class="cls-1" d="M2.82,21.72c-.74,0-1.46-.31-1.98-.84C.3,20.36,0,19.62,0,18.86V5.88l.87.97c.41.46.88.86,1.39,1.2,3.55,2.41,6.02,4.12,7.33,5.09.55.41,1,.72,1.34.95.4.25.84.48,1.3.66.47.21.95.31,1.44.33.5-.01.98-.12,1.44-.32.47-.19.9-.41,1.32-.67.33-.22.78-.54,1.33-.94,1.65-1.2,4.12-2.91,7.34-5.09.51-.34.97-.75,1.39-1.2l.87-.96v12.98c0,1.57-1.28,2.85-2.85,2.85H2.82ZM1,8.35v10.51c0,.49.19.97.54,1.3.35.36.83.55,1.31.55h21.66c1.02,0,1.85-.83,1.85-1.86v-10.51c-.22.19-.46.36-.7.52-3.21,2.17-5.67,3.88-7.31,5.07-.56.42-1.03.74-1.38.98-.48.3-.97.55-1.47.75-.55.25-1.16.38-1.79.4-.68-.01-1.29-.15-1.86-.4-.49-.2-.99-.45-1.45-.74-.36-.24-.82-.57-1.39-.98-1.31-.96-3.76-2.66-7.3-5.06-.24-.16-.48-.33-.7-.52ZM13.7,14.19c-.35,0-.65-.06-.94-.16-.33-.12-.64-.26-.94-.44-.3-.18-.57-.34-.79-.49-.21-.14-.48-.33-.81-.57-.32-.23-.52-.38-.62-.44-.89-.63-2.18-1.52-3.85-2.68-1.68-1.16-2.68-1.86-3.02-2.1-.71-.5-1.33-1.11-1.84-1.82C.38,4.87.06,4.05,0,3.21c-.03-.82.22-1.61.71-2.25C1.25.31,2.06-.05,2.88,0h21.63c.74-.02,1.49.3,2.01.84.54.51.85,1.25.84,2.01h0c0,.91-.29,1.77-.81,2.51-.51.75-1.16,1.41-1.92,1.93l-6.88,4.78c-.1.07-.3.21-.61.44-.33.24-.6.43-.81.57-.21.14-.48.31-.79.49-.29.18-.61.33-.93.44-.29.1-.59.16-.89.16ZM2.76,1c-.5,0-.96.21-1.26.58-.34.44-.52,1.01-.5,1.58.04.61.28,1.22.69,1.7.47.65,1.01,1.18,1.63,1.61.33.24,1.34.93,3.01,2.09,1.68,1.16,2.96,2.06,3.86,2.69.1.07.3.22.62.44.33.24.59.42.79.56.2.14.45.29.74.46.24.15.49.27.76.36.19.07.38.1.58.1.21,0,.4-.04.59-.1.26-.09.52-.21.75-.36.29-.17.54-.33.74-.46.21-.14.47-.32.78-.55.33-.24.54-.39.64-.46l6.88-4.78c.66-.46,1.22-1.02,1.67-1.68.41-.58.63-1.25.63-1.95h0c0-.49-.19-.96-.54-1.29-.35-.36-.81-.55-1.29-.55H2.86s-.06,0-.1,0Z"/>
    </g>
  </g>
</svg>