<?xml version="1.0" encoding="UTF-8"?>
<svg id="Layer_2" data-name="Layer 2" xmlns="http://www.w3.org/2000/svg" viewBox="0 0 14.98 14.99">
  <defs>
    <style>
      .cls-1 {
        fill: #495b9b;
        stroke-width: 0px;
      }
    </style>
  </defs>
  <g id="Layer_1-2" data-name="Layer 1">
    <g id="gear-b">
      <path id="Path_235" data-name="Path 235" class="cls-1" d="M14.98,8.99v-3h-1.67c-.13-.55-.34-1.08-.63-1.58l1.16-1.16-2.12-2.12-1.13,1.14c-.5-.3-1.04-.53-1.6-.67V0h-3v1.6c-.56.15-1.1.37-1.6.67l-1.14-1.14L1.14,3.26l1.16,1.16c-.28.49-.49,1.03-.63,1.58H0v3h1.72c.15.53.37,1.04.65,1.51l-1.24,1.24,2.12,2.12,1.26-1.26c.46.27.96.47,1.48.6v1.79h3v-1.8c.52-.13,1.02-.33,1.48-.6l1.26,1.26,2.12-2.12-1.23-1.24c.29-.47.51-.98.65-1.51h1.71ZM7.49,9.59c-1.16,0-2.1-.94-2.1-2.1,0-1.16.94-2.1,2.1-2.1,1.16,0,2.1.94,2.1,2.1h0c0,1.16-.94,2.1-2.1,2.1t0,0Z"/>
    </g>
  </g>
</svg>