<?xml version="1.0" encoding="UTF-8"?>
<svg id="Layer_2" data-name="Layer 2" xmlns="http://www.w3.org/2000/svg" xmlns:xlink="http://www.w3.org/1999/xlink" viewBox="0 0 21.31 16.76">
  <defs>
    <style>
      .cls-1 {
        fill: #132b51;
      }

      .cls-1, .cls-2 {
        stroke-width: 0px;
      }

      .cls-3 {
        clip-path: url(#clippath);
      }

      .cls-2 {
        fill: none;
      }
    </style>
    <clipPath id="clippath">
      <rect class="cls-2" width="21.31" height="16.76"/>
    </clipPath>
  </defs>
  <g id="Group_584" data-name="Group 584">
    <g class="cls-3">
      <g id="Group_584-2" data-name="Group 584-2">
        <path id="Path_320" data-name="Path 320" class="cls-1" d="M21.3,16.39v.03c0,.19-.14.34-.33.35H.33c-.19-.01-.34-.18-.32-.37.01-.17.15-.31.32-.32h20.65c.18,0,.32.14.33.32"/>
        <path id="Path_321" data-name="Path 321" class="cls-1" d="M12.26,6.87l-2.41,1.39c-.27.15-.61.06-.77-.21-.05-.08-.07-.18-.07-.28v-2.78c0-.31.25-.56.56-.56.1,0,.19.03.28.07l2.41,1.39c.27.16.36.5.21.77-.05.09-.12.16-.21.21"/>
        <path id="Path_322" data-name="Path 322" class="cls-1" d="M19.47.67c-.43-.42-1-.66-1.6-.67H3.44C2.19,0,1.18,1.02,1.18,2.26v8.25c0,1.25,1.01,2.26,2.26,2.27h14.43c1.25,0,2.26-1.02,2.26-2.26V2.27c0-.6-.24-1.18-.66-1.6M19.47,10.51c0,.89-.71,1.6-1.6,1.61H3.44c-.89,0-1.6-.72-1.6-1.61V2.26c0-.88.72-1.6,1.6-1.61h14.42c.89,0,1.61.72,1.61,1.61v8.25Z"/>
      </g>
    </g>
  </g>
</svg>