<?xml version="1.0" encoding="UTF-8"?>
<svg id="Layer_2" data-name="Layer 2" xmlns="http://www.w3.org/2000/svg" viewBox="0 0 24.65 23">
  <defs>
    <style>
      .cls-1 {
        fill: #18457e;
        stroke-width: 0px;
      }
    </style>
  </defs>
  <g id="Layer_1-2" data-name="Layer 1">
    <g id="Group_90" data-name="Group 90">
      <path id="Path_49" data-name="Path 49" class="cls-1" d="M24.65,10.78c0,5.95-5.52,10.78-12.32,10.78-1.22,0-2.44-.16-3.61-.47-2.04.95-4.21,1.59-6.44,1.9-.22.03-.42-.12-.45-.34-.01-.07,0-.15.03-.22.61-1.46,1.01-3,1.19-4.57C1.12,16.01.03,13.45,0,10.78,0,4.83,5.52,0,12.32,0s12.32,4.83,12.32,10.78ZM7.7,10.78c0-.85-.69-1.54-1.54-1.54s-1.54.69-1.54,1.54.69,1.54,1.54,1.54c.85,0,1.54-.69,1.54-1.54h0ZM13.86,10.78c0-.85-.69-1.54-1.54-1.54s-1.54.69-1.54,1.54.69,1.54,1.54,1.54,1.54-.69,1.54-1.54h0ZM18.49,12.32c.85,0,1.54-.69,1.54-1.54s-.69-1.54-1.54-1.54-1.54.69-1.54,1.54.69,1.54,1.54,1.54Z"/>
    </g>
  </g>
</svg>