<?xml version="1.0" encoding="UTF-8"?>
<svg id="Layer_2" data-name="Layer 2" xmlns="http://www.w3.org/2000/svg" viewBox="0 0 14.33 15.78">
  <defs>
    <style>
      .cls-1 {
        fill: #495b9b;
        stroke-width: 0px;
      }
    </style>
  </defs>
  <g id="Layer_1-2" data-name="Layer 1">
    <g id="bell_outline" data-name="bell outline">
      <path class="cls-1" d="M7.16,15.78c-1.65,0-3-1.35-3-3v-.33H.5c-.17,0-.33-.09-.42-.23s-.1-.33-.03-.48c.97-2.04,1.52-4.21,1.62-6.46.06-1.47.69-2.82,1.77-3.82C4.52.45,5.92-.05,7.39,0c2.85.12,5.09,2.34,5.26,5.17,0,.03.01.07.01.11,0,2.37,1.61,6.43,1.63,6.47.06.15.04.33-.05.47s-.25.22-.41.22h-3.67v.33c0,1.65-1.35,3-3,3ZM5.16,12.44v.33c0,1.1.9,2,2,2s2-.9,2-2v-.33h-4ZM1.27,11.44h11.83c-.47-1.29-1.41-4.1-1.44-6.07,0-.02,0-.04,0-.06-.1-2.35-1.95-4.21-4.3-4.3-1.21-.05-2.35.37-3.23,1.18-.89.81-1.4,1.92-1.45,3.12-.1,2.13-.56,4.19-1.39,6.13Z"/>
    </g>
  </g>
</svg>