<?xml version="1.0" encoding="UTF-8"?>
<svg id="Layer_2" data-name="Layer 2" xmlns="http://www.w3.org/2000/svg" viewBox="0 0 26.37 20.72">
  <defs>
    <style>
      .cls-1 {
        fill: #18457e;
        stroke-width: 0px;
      }
    </style>
  </defs>
  <g id="Layer_1-2" data-name="Layer 1">
    <path id="Path_236" data-name="Path 236" class="cls-1" d="M26.36,6.68v11.68c0,1.3-1.06,2.35-2.35,2.35H2.36c-.63,0-1.23-.24-1.66-.69C.24,19.59,0,18.99,0,18.36V6.68c.44.49.94.92,1.49,1.28,3.55,2.41,5.99,4.1,7.31,5.08.56.41,1.01.73,1.36.96.44.28.91.51,1.39.71.51.23,1.06.35,1.62.36h.03c.56-.01,1.11-.13,1.62-.36.48-.19.94-.43,1.38-.7.35-.23.8-.55,1.36-.96,1.67-1.21,4.11-2.9,7.33-5.07.54-.37,1.04-.8,1.48-1.28ZM26.36,2.36c0,.8-.26,1.57-.72,2.22-.48.71-1.09,1.32-1.8,1.81-3.69,2.56-5.98,4.15-6.89,4.78-.1.07-.31.22-.62.45-.32.23-.58.42-.79.56-.21.14-.47.3-.77.48-.27.16-.55.3-.85.4-.24.08-.49.13-.74.13h-.03c-.25,0-.5-.05-.74-.13-.3-.1-.58-.24-.85-.4-.3-.18-.55-.34-.77-.48-.21-.14-.48-.33-.79-.56-.32-.23-.53-.38-.62-.45-.89-.63-2.18-1.52-3.85-2.68-1.68-1.16-2.68-1.86-3.02-2.1-.66-.47-1.25-1.04-1.72-1.7C.33,4.12.05,3.42,0,2.68c-.02-.69.19-1.36.61-1.91C1.04.25,1.69-.03,2.36,0h21.66c.62,0,1.22.24,1.66.69.45.43.71,1.04.7,1.66Z"/>
  </g>
</svg>