<?xml version="1.0" encoding="UTF-8"?>
<svg id="Layer_2" data-name="Layer 2" xmlns="http://www.w3.org/2000/svg" viewBox="0 0 25.65 24">
  <defs>
    <style>
      .cls-1 {
        fill: #18457e;
        stroke-width: 0px;
      }
    </style>
  </defs>
  <g id="Layer_1-2" data-name="Layer 1">
    <g id="chat-dots-fill">
      <g id="Group_90" data-name="Group 90">
        <path class="cls-1" d="M2.71,24c-.19,0-.38-.06-.54-.18-.19-.15-.32-.36-.35-.59-.02-.17,0-.34.07-.49.56-1.33.94-2.74,1.12-4.18C1.12,16.62.03,13.99,0,11.29,0,5.06,5.75,0,12.82,0s12.82,5.06,12.82,11.28-5.75,11.28-12.82,11.28c-1.23-.02-2.4-.15-3.57-.44-2.04.93-4.2,1.56-6.42,1.87-.04,0-.08,0-.12,0ZM12.82,1C6.3,1,1,5.61,1,11.28c.02,2.52,1.07,4.97,2.88,6.73l.18.17-.03.24c-.17,1.57-.56,3.1-1.16,4.55,2.12-.31,4.18-.93,6.12-1.83l.16-.08.18.05c1.13.3,2.3.46,3.46.46h.02c6.52,0,11.82-4.61,11.82-10.28S19.34,1,12.82,1ZM18.99,13.32c-1.12,0-2.04-.92-2.04-2.04s.92-2.04,2.04-2.04,2.04.92,2.04,2.04-.92,2.04-2.04,2.04ZM18.99,10.24c-.57,0-1.04.47-1.04,1.04s.47,1.04,1.04,1.04,1.04-.47,1.04-1.04-.47-1.04-1.04-1.04ZM12.82,13.32c-1.12,0-2.04-.92-2.04-2.04s.92-2.04,2.04-2.04,2.04.92,2.04,2.04-.92,2.04-2.04,2.04ZM12.82,10.24c-.57,0-1.04.47-1.04,1.04s.47,1.04,1.04,1.04,1.04-.47,1.04-1.04-.47-1.04-1.04-1.04ZM6.66,13.32c-1.13,0-2.04-.92-2.04-2.04s.92-2.04,2.04-2.04,2.04.92,2.04,2.04h0c0,1.12-.92,2.04-2.04,2.04ZM6.66,10.24c-.57,0-1.04.47-1.04,1.04s.47,1.04,1.04,1.04c.57,0,1.04-.47,1.04-1.04h0c0-.57-.47-1.04-1.04-1.04Z"/>
      </g>
    </g>
  </g>
</svg>