<?xml version="1.0" encoding="UTF-8"?>
<svg id="Layer_2" data-name="Layer 2" xmlns="http://www.w3.org/2000/svg" viewBox="0 0 16.52 17.02">
  <defs>
    <style>
      .cls-1 {
        fill: #132b51;
        stroke-width: 0px;
      }
    </style>
  </defs>
  <g id="Layer_1-2" data-name="Layer 1">
    <g id="Group_566" data-name="Group 566">
      <path id="Path_241" data-name="Path 241" class="cls-1" d="M8.24,9.53c-.61-1.23-1.6-2.23-2.83-2.86,1.24-.59,2.24-1.59,2.84-2.83.6,1.24,1.61,2.24,2.86,2.83-1.23.62-2.24,1.62-2.86,2.85M11.96,6.67c0-.21-.13-.41-.33-.49-1.3-.54-2.34-1.58-2.89-2.88-.08-.2-.28-.33-.49-.33-.22,0-.41.13-.49.33-.55,1.3-1.58,2.33-2.88,2.87-.2.08-.33.27-.33.49,0,.21.13.41.32.49,1.29.58,2.31,1.62,2.88,2.91.12.27.43.39.69.28.13-.05.23-.16.28-.28.58-1.29,1.61-2.33,2.91-2.9.2-.09.33-.28.33-.49h0Z"/>
      <path id="Path_242" data-name="Path 242" class="cls-1" d="M8.26,12.72c-.58-.83-1.54-1.32-2.55-1.32-.34,0-.68.06-1,.18.03-1.38-.87-2.61-2.18-3.01.83-1.1.83-2.63,0-3.73,1.32-.4,2.21-1.63,2.2-3.01.32.11.65.16.98.16,1.01,0,1.96-.49,2.54-1.32.59.83,1.55,1.32,2.56,1.32.34,0,.67-.06.99-.17-.01,1.37.86,2.59,2.17,3.01-.81,1.11-.81,2.61,0,3.72-1.31.41-2.19,1.64-2.17,3.01h0c-1.3-.45-2.75.02-3.53,1.16M11.59,12.19c.08.03.17.05.25.04.17,0,.32-.08.44-.2.13-.12.19-.29.19-.47-.02-1.09.68-2.07,1.73-2.39.07-.02.14-.05.2-.1.14-.1.23-.25.25-.42.03-.17-.01-.35-.12-.49-.66-.87-.66-2.07,0-2.94l.08-.1.03-.1c.05-.16.04-.34-.04-.49-.08-.16-.22-.27-.38-.33-1.04-.33-1.74-1.3-1.73-2.39,0-.08-.01-.16-.03-.23-.06-.16-.18-.3-.33-.38-.15-.07-.33-.08-.49-.03-.26.09-.52.13-.79.13-.8,0-1.55-.38-2.01-1.03-.04-.06-.1-.11-.15-.15-.29-.21-.7-.14-.91.15-.46.65-1.21,1.04-2.01,1.04-.27,0-.53-.04-.79-.13-.24-.08-.5-.02-.68.16-.13.12-.19.29-.19.47.02,1.09-.68,2.06-1.72,2.38-.35.1-.55.47-.44.82.02.07.06.14.1.21.66.88.66,2.08,0,2.95-.04.06-.08.12-.1.19-.1.35.09.71.43.82,1.04.32,1.74,1.29,1.72,2.38,0,.08,0,.16.03.24.06.16.18.3.34.38.15.07.33.08.49.03.26-.09.53-.13.81-.13.8,0,1.55.39,2.01,1.05.04.06.1.11.15.15.11.08.24.12.38.12.04,0,.07,0,.11,0,.17-.03.32-.12.42-.27.6-.9,1.74-1.29,2.77-.93h0Z"/>
      <path id="Path_243" data-name="Path 243" class="cls-1" d="M14.13,10.83c-.1-.15-.31-.2-.46-.1-.15.1-.2.31-.1.46h0l1.71,2.62h-1.87s-.9,1.85-.9,1.85l-1.64-2.5c-.1-.15-.31-.2-.46-.1-.15.1-.2.31-.1.46h0l2.28,3.49,1.23-2.52h2.69s-2.4-3.66-2.4-3.66h0ZM6.09,13.07c-.15-.1-.36-.05-.46.1l-1.63,2.49-.9-1.84h-1.87s1.71-2.62,1.71-2.62c.1-.15.06-.36-.1-.46-.15-.1-.36-.06-.46.1l-2.38,3.64h2.69s1.23,2.53,1.23,2.53l2.27-3.48c.1-.16.05-.36-.1-.46h0Z"/>
    </g>
  </g>
</svg>