<?xml version="1.0" encoding="UTF-8"?>
<svg id="Layer_2" data-name="Layer 2" xmlns="http://www.w3.org/2000/svg" viewBox="0 0 25.74 21.71">
  <defs>
    <style>
      .cls-1 {
        fill: #18457e;
        stroke-width: 0px;
      }
    </style>
  </defs>
  <g id="Layer_1-2" data-name="Layer 1">
    <g id="feed">
      <g id="Group_89" data-name="Group 89">
        <path class="cls-1" d="M18.76,8.77h-5.18c-.99,0-1.79-.81-1.79-1.79,0-.48.19-.93.52-1.27.34-.34.79-.53,1.27-.53h5.18c.99,0,1.79.81,1.79,1.79s-.81,1.79-1.79,1.79ZM13.58,6.18c-.21,0-.41.08-.56.23s-.23.35-.23.56c0,.44.36.79.79.79h5.18c.44,0,.79-.36.79-.79s-.36-.79-.79-.79h-5.18Z"/>
        <path class="cls-1" d="M18.77,20.42h-5.18c-.99,0-1.79-.81-1.79-1.79,0-.48.19-.93.52-1.27.34-.34.79-.53,1.27-.53h5.18c.48,0,.94.19,1.27.53.34.34.52.79.52,1.27,0,.48-.19.93-.53,1.27-.34.34-.79.52-1.27.52ZM13.58,17.83c-.21,0-.41.08-.56.23s-.23.35-.23.56c0,.44.36.79.79.79h5.18c.21,0,.41-.08.56-.23.15-.15.23-.35.23-.56,0-.21-.08-.41-.23-.56-.15-.15-.35-.23-.56-.23h-5.18Z"/>
        <path class="cls-1" d="M23.94,4.88h-10.36c-.99,0-1.8-.81-1.8-1.79s.81-1.79,1.8-1.79h10.36c.99,0,1.79.81,1.79,1.79s-.81,1.79-1.79,1.79ZM13.58,2.29c-.44,0-.8.36-.8.79s.36.79.8.79h10.36c.44,0,.79-.36.79-.79s-.36-.79-.79-.79h-10.36Z"/>
        <path class="cls-1" d="M23.94,16.54h-10.36c-.99,0-1.79-.81-1.79-1.79,0-.48.19-.93.52-1.27.34-.34.79-.53,1.27-.53h10.36c.99,0,1.79.81,1.79,1.79,0,.48-.19.93-.52,1.27-.34.34-.79.53-1.27.53ZM13.58,13.95c-.21,0-.41.08-.56.23s-.23.35-.23.56c0,.44.36.79.79.79h10.36c.21,0,.41-.08.56-.23.15-.15.23-.35.23-.56,0-.44-.36-.79-.79-.79h-10.36Z"/>
        <path class="cls-1" d="M8.27,10.06H1.79c-.99,0-1.79-.81-1.79-1.79V1.79C0,.81.81,0,1.79,0h6.48c.99,0,1.79.81,1.8,1.79v6.48c0,.99-.81,1.79-1.79,1.79ZM1.8,1c-.44,0-.8.36-.8.8v6.47c0,.44.36.79.8.79h6.47c.44,0,.79-.36.8-.8V1.79c0-.44-.36-.79-.8-.79H1.8Z"/>
        <path class="cls-1" d="M1.79,21.71c-.99,0-1.79-.81-1.79-1.79v-6.48c0-.99.81-1.79,1.79-1.79h6.48c.99,0,1.79.81,1.8,1.79v6.48c0,.99-.81,1.79-1.79,1.79H1.79ZM1.8,12.65c-.44,0-.79.36-.8.8v6.47c0,.44.36.79.8.79h6.47c.44,0,.79-.36.8-.8v-6.47c0-.44-.36-.79-.8-.79H1.8Z"/>
      </g>
    </g>
  </g>
</svg>