<?xml version="1.0" encoding="UTF-8"?>
<svg id="Layer_2" data-name="Layer 2" xmlns="http://www.w3.org/2000/svg" viewBox="0 0 24.74 20.71">
  <defs>
    <style>
      .cls-1 {
        fill: #18457e;
        stroke-width: 0px;
      }
    </style>
  </defs>
  <g id="Layer_1-2" data-name="Layer 1">
    <g id="Group_89" data-name="Group 89">
      <path id="Path_43" data-name="Path 43" class="cls-1" d="M13.08,5.18c-.72,0-1.29.58-1.29,1.3,0,.71.58,1.29,1.29,1.29h5.18c.72,0,1.29-.58,1.29-1.29s-.58-1.3-1.29-1.3h-5.18Z"/>
      <path id="Path_44" data-name="Path 44" class="cls-1" d="M13.08,16.83c-.72,0-1.29.58-1.29,1.3,0,.71.58,1.29,1.29,1.29h5.18c.72,0,1.3-.58,1.3-1.29s-.58-1.3-1.29-1.3h-5.18Z"/>
      <path id="Path_45" data-name="Path 45" class="cls-1" d="M13.08,1.29c-.72,0-1.29.58-1.29,1.29s.58,1.3,1.29,1.3h10.36c.72,0,1.29-.58,1.29-1.3s-.58-1.29-1.29-1.29h-10.36Z"/>
      <path id="Path_46" data-name="Path 46" class="cls-1" d="M13.08,12.95c-.72,0-1.29.58-1.29,1.3,0,.71.58,1.29,1.29,1.29h10.36c.72,0,1.29-.58,1.29-1.3,0-.71-.58-1.29-1.29-1.29h-10.36Z"/>
      <path id="Path_47" data-name="Path 47" class="cls-1" d="M1.3,0C.58,0,0,.58,0,1.29v6.47c0,.71.58,1.29,1.3,1.29h6.48c.71,0,1.29-.58,1.3-1.29V1.3C9.06.58,8.48,0,7.77,0H1.3Z"/>
      <path id="Path_48" data-name="Path 48" class="cls-1" d="M1.3,11.65c-.71,0-1.29.58-1.3,1.29v6.47c0,.71.58,1.29,1.3,1.29h6.48c.71,0,1.29-.58,1.3-1.29v-6.47c0-.71-.58-1.29-1.3-1.29H1.3Z"/>
    </g>
  </g>
</svg>