<?xml version="1.0" encoding="UTF-8"?>
<svg id="Layer_2" data-name="Layer 2" xmlns="http://www.w3.org/2000/svg" viewBox="0 0 19.55 19.55">
  <defs>
    <style>
      .cls-1 {
        fill: #495b9b;
      }

      .cls-1, .cls-2 {
        stroke-width: 0px;
      }

      .cls-2 {
        fill: none;
      }
    </style>
  </defs>
  <g id="Layer_1-2" data-name="Layer 1">
    <g>
      <path class="cls-1" d="M6.72,17c-.61,0-1.11-.5-1.11-1.11s.5-1.11,1.11-1.11,1.11.5,1.11,1.11h0c0,.62-.5,1.11-1.11,1.11ZM6.72,15.78c-.06,0-.11.05-.11.11,0,.12.22.12.22,0,0-.06-.05-.11-.11-.11Z"/>
      <path class="cls-1" d="M15.28,17c-.61,0-1.11-.5-1.11-1.11s.5-1.11,1.11-1.11,1.11.5,1.11,1.11h0c0,.62-.5,1.11-1.11,1.11ZM15.28,15.78c-.06,0-.11.05-.11.11,0,.12.22.12.22,0,0-.06-.05-.11-.11-.11Z"/>
      <path class="cls-1" d="M15.89,13.94H6.11c-.24,0-.45-.17-.49-.41L3.86,3.55H1.83c-.28,0-.5-.22-.5-.5s.22-.5.5-.5h2.44c.24,0,.45.17.49.41l1.76,9.97h9.36c.28,0,.5.22.5.5s-.22.5-.5.5Z"/>
      <path class="cls-1" d="M15.63,11.5H6.11c-.28,0-.5-.22-.5-.5s.22-.5.5-.5h9.37l1.02-5.11H4.89c-.28,0-.5-.22-.5-.5s.22-.5.5-.5h11.85c.24,0,.46.1.61.28.16.21.22.45.17.68l-1.1,5.5c-.08.38-.41.65-.79.65ZM16.54,5.16h0s0,0,0,0Z"/>
      <path id="Path_350" data-name="Path 350" class="cls-2" d="M0,0h19.55v19.55H0V0Z"/>
    </g>
  </g>
</svg>