<?xml version="1.0" encoding="UTF-8"?>
<svg id="Layer_2" data-name="Layer 2" xmlns="http://www.w3.org/2000/svg" xmlns:xlink="http://www.w3.org/1999/xlink" viewBox="0 0 16.81 15.47">
  <defs>
    <style>
      .cls-1 {
        fill: #132b51;
      }

      .cls-1, .cls-2 {
        stroke-width: 0px;
      }

      .cls-3 {
        clip-path: url(#clippath);
      }

      .cls-2 {
        fill: none;
      }
    </style>
    <clipPath id="clippath">
      <rect class="cls-2" width="16.81" height="15.47"/>
    </clipPath>
  </defs>
  <g id="Group_587" data-name="Group 587">
    <g class="cls-3">
      <g id="Group_587-2" data-name="Group 587-2">
        <path id="Path_334" data-name="Path 334" class="cls-1" d="M15.47,7.06v6.72c0,.93-.76,1.69-1.69,1.69H3.03c-.93,0-1.69-.76-1.69-1.69v-6.72c0-.19.15-.35.34-.35.19,0,.35.15.35.34h0v6.72c0,.55.45,1,1,1h10.74c.55,0,1-.44,1-.98,0,0,0-.01,0-.02v-6.72c.01-.19.17-.34.36-.33.18,0,.32.15.33.33"/>
        <path id="Path_335" data-name="Path 335" class="cls-1" d="M6.39,9.4h-.67c-.93,0-1.69.76-1.69,1.69v4.03c0,.19.15.35.35.35h3.36c.19,0,.34-.15.35-.34,0,0,0,0,0,0v-4.03c0-.93-.76-1.69-1.69-1.69M7.39,14.77h-2.67v-3.68c0-.55.45-1,1-1h.67c.55,0,1,.44,1,.99,0,0,0,0,0,.01v3.68Z"/>
        <path id="Path_336" data-name="Path 336" class="cls-1" d="M16.81,4.38v.67c0,1.3-1.06,2.36-2.36,2.36-1.3,0-2.36-1.06-2.36-2.36.01-.19.17-.34.36-.33.18,0,.32.15.33.33,0,.92.75,1.67,1.67,1.67s1.67-.75,1.67-1.67v-.59l-1.88-3.77H2.58l-1.88,3.77v.59c0,.92.75,1.67,1.67,1.67s1.67-.75,1.67-1.67c0-.19.15-.35.35-.35s.34.15.34.35h0c0,1.3-1.06,2.36-2.36,2.36C1.06,7.41,0,6.35,0,5.05c0,0,0,0,0,0v-.67c0-.05.01-.11.04-.16L2.05.19c.06-.12.18-.19.31-.19h12.09c.13,0,.25.07.31.19l2.02,4.04s.03.1.03.15"/>
        <path id="Path_337" data-name="Path 337" class="cls-1" d="M8.75,5.05c0,1.3-1.06,2.36-2.36,2.36-1.3,0-2.36-1.06-2.36-2.36,0-.19.16-.34.35-.34.19,0,.34.15.34.34,0,.92.75,1.67,1.67,1.67s1.67-.75,1.67-1.67c0-.19.16-.34.35-.34.19,0,.34.15.34.34"/>
        <path id="Path_338" data-name="Path 338" class="cls-1" d="M12.78,10.42c0,.19-.15.35-.35.35h-2.01c-.19-.01-.34-.17-.33-.36,0-.18.15-.32.33-.33h2.01c.19,0,.35.15.35.35h0"/>
        <path id="Path_339" data-name="Path 339" class="cls-1" d="M12.78,5.05c0,1.3-1.06,2.36-2.36,2.36-1.3,0-2.36-1.06-2.36-2.36,0-.19.15-.35.35-.35s.35.15.35.35c0,.92.75,1.67,1.67,1.67.92,0,1.67-.75,1.67-1.67h0c.01-.19.17-.34.36-.33.18,0,.32.15.33.33"/>
      </g>
    </g>
  </g>
</svg>