<?xml version="1.0" encoding="UTF-8"?>
<svg id="Layer_2" data-name="Layer 2" xmlns="http://www.w3.org/2000/svg" xmlns:xlink="http://www.w3.org/1999/xlink" viewBox="0 0 16.99 16.99">
  <defs>
    <style>
      .cls-1 {
        fill: #132b51;
      }

      .cls-1, .cls-2 {
        stroke-width: 0px;
      }

      .cls-3 {
        clip-path: url(#clippath);
      }

      .cls-2 {
        fill: none;
      }
    </style>
    <clipPath id="clippath">
      <rect class="cls-2" width="16.99" height="16.99"/>
    </clipPath>
  </defs>
  <g id="Layer_1-2" data-name="Layer 1">
    <g id="Group_589" data-name="Group 589">
      <g class="cls-3">
        <g id="Group_589-2" data-name="Group 589-2">
          <path id="Path_345" data-name="Path 345" class="cls-1" d="M14.51,14.51h-.85v-2.71h.85v2.71ZM11.18,14.51h.85v-5.81h-.85v5.81ZM5.59,8.7v.85c1.13.11,1.96,1.12,1.86,2.25-.11,1.13-1.12,1.96-2.25,1.86-.98-.09-1.76-.87-1.86-1.86h-.85c.11,1.6,1.5,2.81,3.1,2.7s2.81-1.5,2.7-3.1c-.1-1.45-1.25-2.6-2.7-2.7M16.99,1.04v14.91c0,.58-.47,1.04-1.04,1.04H1.04c-.58,0-1.04-.47-1.04-1.04V1.04C0,.47.47,0,1.04,0h14.91c.58,0,1.04.47,1.04,1.04M.85,5.59h5.37V.85H.85s0,4.74,0,4.74ZM16.15,6.44H.85v9.71h15.3V6.44ZM16.15.85H7.06v4.74h9.09V.85Z"/>
        </g>
      </g>
    </g>
  </g>
</svg>