<?xml version="1.0" encoding="UTF-8"?>
<svg id="Layer_2" data-name="Layer 2" xmlns="http://www.w3.org/2000/svg" xmlns:xlink="http://www.w3.org/1999/xlink" viewBox="0 0 15 18.93">
  <defs>
    <style>
      .cls-1 {
        fill: #132b51;
      }

      .cls-1, .cls-2 {
        stroke-width: 0px;
      }

      .cls-3 {
        clip-path: url(#clippath);
      }

      .cls-2 {
        fill: none;
      }
    </style>
    <clipPath id="clippath">
      <rect class="cls-2" width="15" height="18.93"/>
    </clipPath>
  </defs>
  <g id="Group_586" data-name="Group 586">
    <g class="cls-3">
      <g id="Group_586-2" data-name="Group 586-2">
        <path id="Path_333" data-name="Path 333" class="cls-1" d="M14.45,14.7l-5.83,3.38V7.18l5.83-3.38v10.9ZM6.28,18.12c-.19-.13-.32-.34-.35-.57V7.01l.03.02c.64.34,1.38.46,2.1.32v10.98c-.6.13-1.23.05-1.78-.21h0ZM3.59,17.09c-.19-.13-.32-.34-.35-.57V5.98s.02.02.03.03c.43.26.94.39,1.44.36h0c.22,0,.44-.01.66-.04v10.98c-.6.13-1.23.05-1.78-.21ZM.9,16.08c-.19-.13-.32-.34-.35-.57V4.97s.02.02.03.03c.43.26.94.39,1.44.37h0c.22,0,.44-.01.66-.04v10.98c-.6.12-1.23.05-1.79-.22M6.69.58l2.01.76-5.85,3.39c-.65.16-1.34.1-1.95-.18h0c-.15-.1-.26-.25-.31-.43L6.69.58ZM5.58,5.73h-.01c-.66.16-1.36.1-1.98-.18-.15-.1-.26-.25-.31-.43l6.1-3.53,2.03.76-5.83,3.38ZM8.23,6.76c-.65.16-1.34.09-1.95-.19-.15-.1-.26-.25-.31-.43l6.1-3.53,2.02.76-5.85,3.39ZM14.99,3.23s0-.02-.01-.03h0c-.03-.06-.08-.1-.14-.13h-.01l-2.62-.99s-.04-.03-.06-.04l-2.69-1.01h0L6.76.02h0c-.08-.03-.16-.02-.24.02L.14,3.74s0,0-.01.01H.12s-.06.06-.09.09c0,0,0,.01-.01.02-.02.04-.03.08-.03.12v11.57c.04.4.25.76.58.99.43.26.94.39,1.44.36.24,0,.49-.02.73-.05.09.28.27.53.52.7.43.26.94.39,1.44.36.24,0,.48-.02.72-.05.09.29.27.54.52.72.43.26.94.39,1.44.36.34,0,.67-.03,1-.1.01,0,.02-.01.03-.02h.03s.03-.03.04-.04l6.35-3.68h0c.09-.05.14-.14.14-.24V3.33s0-.07-.01-.1"/>
      </g>
    </g>
  </g>
</svg>