<?xml version="1.0" encoding="UTF-8"?>
<svg id="Layer_2" data-name="Layer 2" xmlns="http://www.w3.org/2000/svg" xmlns:xlink="http://www.w3.org/1999/xlink" viewBox="0 0 16.02 16">
  <defs>
    <style>
      .cls-1 {
        fill: #132b51;
      }

      .cls-1, .cls-2 {
        stroke-width: 0px;
      }

      .cls-3 {
        clip-path: url(#clippath);
      }

      .cls-2 {
        fill: none;
      }
    </style>
    <clipPath id="clippath">
      <rect class="cls-2" width="16.02" height="16"/>
    </clipPath>
  </defs>
  <g id="Group_583" data-name="Group 583">
    <g class="cls-3">
      <g id="Group_583-2" data-name="Group 583-2">
        <path id="Path_317" data-name="Path 317" class="cls-1" d="M5.71,12.83l-2.55-2.55c-.07-.07-.16-.11-.25-.11-.02,0-.04,0-.06,0-.11.02-.21.1-.26.2L.04,15.48c-.09.18-.02.39.16.48.05.02.1.04.16.04.05,0,.1-.01.15-.04h.02s5.1-2.56,5.1-2.56c.18-.09.25-.3.16-.47-.02-.04-.04-.07-.07-.1M1.18,14.83l1.82-3.69,1.88,1.87-3.69,1.82Z"/>
        <path id="Path_318" data-name="Path 318" class="cls-1" d="M15.46.9l-.37-.37c-.76-.71-1.94-.71-2.69,0L2.65,10.29c-.07.07-.11.16-.11.25,0,.09.03.18.1.25l2.56,2.56c.14.13.36.13.5,0L15.46,3.59c.74-.74.74-1.95,0-2.69M14.96,3.09L5.46,12.59l-2.05-2.05L12.91,1.04c.46-.46,1.21-.46,1.67,0l.38.37c.46.46.47,1.2,0,1.67,0,0,0,0,0,0"/>
        <path id="Path_319" data-name="Path 319" class="cls-1" d="M14.11,4.8c0,.1-.04.19-.11.25-.14.13-.36.13-.5,0l-3.56-3.57-.09-.08h-.01c-.37-.28-.88-.24-1.21.08l-2.84,2.84-.09.08c-.14.14-.36.14-.5,0-.07-.07-.11-.16-.11-.25,0-.09.04-.19.11-.25l2.93-2.92.03-.03c.65-.59,1.64-.58,2.28.03l3.48,3.47.09.09c.07.07.1.16.1.25"/>
      </g>
    </g>
  </g>
</svg>