<?xml version="1.0" encoding="UTF-8"?>
<svg id="Layer_2" data-name="Layer 2" xmlns="http://www.w3.org/2000/svg" xmlns:xlink="http://www.w3.org/1999/xlink" viewBox="0 0 15.02 12.78">
  <defs>
    <style>
      .cls-1 {
        fill: #132b51;
      }

      .cls-1, .cls-2 {
        stroke-width: 0px;
      }

      .cls-3 {
        clip-path: url(#clippath);
      }

      .cls-2 {
        fill: none;
      }
    </style>
    <clipPath id="clippath">
      <rect class="cls-2" width="15.02" height="12.78"/>
    </clipPath>
  </defs>
  <g id="Group_611" data-name="Group 611">
    <g class="cls-3">
      <g id="Group_582" data-name="Group 582">
        <path id="Path_313" data-name="Path 313" class="cls-1" d="M14.94,8.44s-.11-.08-.18-.07h-2.42l-.48-.98c-.04-.09-.13-.14-.23-.14h-2.45c-.14,0-.26.12-.26.26v5.02c0,.07.03.13.07.18.05.05.11.08.18.07h5.58c.07,0,.13-.03.18-.07.05-.05.08-.11.07-.18v-3.9c0-.07-.03-.13-.07-.18M14.5,12.28h-5.06v-4.51h2.03l.56,1.11h2.48v3.4Z"/>
        <path id="Path_314" data-name="Path 314" class="cls-1" d="M6.02,8.44s-.11-.08-.18-.07h-2.42l-.48-.98c-.04-.09-.13-.14-.23-.14H.26c-.14,0-.26.12-.26.26v5.02c0,.07.03.13.07.18.05.05.11.08.18.07h5.58c.07,0,.13-.03.18-.07.05-.05.08-.11.07-.18v-3.9c0-.07-.03-.13-.07-.18M5.58,12.28H.51v-4.51h2.03l.56,1.11h2.48v3.4Z"/>
        <path id="Path_315" data-name="Path 315" class="cls-1" d="M14.94,1.19s-.11-.08-.18-.08h-2.42l-.49-.97c-.04-.09-.13-.14-.22-.14h-2.45c-.14,0-.26.11-.26.26v5.02c0,.14.11.25.25.26,0,0,0,0,0,0h5.58c.14,0,.25-.11.26-.25,0,0,0,0,0,0V1.38c0-.07-.03-.13-.07-.18M14.5,5.02h-5.06V.51h2.03l.56,1.12h2.48v3.39Z"/>
        <path id="Path_316" data-name="Path 316" class="cls-1" d="M6.02,1.19s-.11-.08-.18-.08h-2.42l-.48-.97c-.04-.09-.13-.14-.22-.14H.26C.11,0,0,.11,0,.26v5.02c0,.14.11.25.25.26,0,0,0,0,0,0h5.58c.14,0,.25-.11.26-.25,0,0,0,0,0,0V1.38c0-.07-.03-.13-.07-.18M5.58,5.02H.51V.51h2.03l.56,1.12h2.48v3.39Z"/>
      </g>
    </g>
  </g>
</svg>