<?xml version="1.0" encoding="UTF-8"?>
<svg id="Layer_2" data-name="Layer 2" xmlns="http://www.w3.org/2000/svg" xmlns:xlink="http://www.w3.org/1999/xlink" viewBox="0 0 22.01 15.32">
  <defs>
    <style>
      .cls-1 {
        fill: #132b51;
      }

      .cls-1, .cls-2 {
        stroke-width: 0px;
      }

      .cls-3 {
        clip-path: url(#clippath);
      }

      .cls-2 {
        fill: none;
      }
    </style>
    <clipPath id="clippath">
      <rect class="cls-2" width="22.01" height="15.32"/>
    </clipPath>
  </defs>
  <g id="Group_585" data-name="Group 585">
    <g class="cls-3">
      <g id="Group_585-2" data-name="Group 585-2">
        <path id="Path_323" data-name="Path 323" class="cls-1" d="M21.84,1.49c-3.39-1.99-7.6-1.99-10.99,0-.1.05-.16.16-.16.27v13.25c0,.17.14.31.31.31.05,0,.09-.01.14-.03,3.25-1.74,7.16-1.74,10.42,0,.1.05.21.04.3-.01.09-.06.14-.15.15-.26V1.76c0-.11-.06-.22-.16-.27M21.39,14.52l-.26-.11c-3.04-1.39-6.52-1.39-9.56,0l-.26.11V1.95l.1-.05c3.07-1.7,6.81-1.7,9.88,0l.1.05v12.57Z"/>
        <path id="Path_324" data-name="Path 324" class="cls-1" d="M19.4,3.45c-.05.16-.22.26-.38.21-1.74-.5-3.59-.5-5.33,0-.16.05-.33-.05-.38-.21-.05-.16.05-.33.21-.38,1.85-.53,3.81-.53,5.67,0,.16.05.26.22.21.38,0,0,0,0,0,0"/>
        <path id="Path_325" data-name="Path 325" class="cls-1" d="M19.4,6.12c-.05.16-.22.26-.38.21-1.74-.5-3.59-.5-5.33,0-.16.05-.33-.05-.38-.21-.05-.16.05-.33.21-.38,1.85-.53,3.81-.53,5.67,0,.08.02.15.07.19.15.04.07.05.16.03.23"/>
        <path id="Path_326" data-name="Path 326" class="cls-1" d="M19.4,8.8c-.05.16-.22.26-.38.21-1.74-.5-3.59-.5-5.33,0-.16.05-.33-.05-.38-.21-.05-.16.05-.33.21-.38,1.85-.53,3.81-.53,5.67,0,.08.02.15.07.19.15.04.07.05.16.03.23"/>
        <path id="Path_327" data-name="Path 327" class="cls-1" d="M19.4,11.47c-.05.16-.22.26-.38.21-1.74-.5-3.59-.5-5.33,0-.16.05-.33-.05-.38-.21-.05-.16.05-.33.21-.38h0c1.85-.53,3.81-.53,5.67,0,.08.02.15.07.19.15.04.07.05.16.03.23"/>
        <path id="Path_328" data-name="Path 328" class="cls-1" d="M8.7,11.47c-.05.16-.22.26-.38.21-1.74-.5-3.59-.5-5.33,0-.16.04-.33-.05-.38-.21-.02-.08-.01-.16.03-.23.04-.07.11-.12.18-.15,1.85-.53,3.82-.53,5.67,0,.16.05.26.22.21.38"/>
        <path id="Path_329" data-name="Path 329" class="cls-1" d="M8.7,8.8c-.05.16-.22.26-.38.21-1.74-.5-3.59-.5-5.33,0-.16.04-.33-.05-.38-.21-.02-.08-.01-.16.03-.23.04-.07.11-.12.18-.15,1.85-.53,3.82-.53,5.67,0,.16.05.26.22.21.38"/>
        <path id="Path_330" data-name="Path 330" class="cls-1" d="M8.7,6.12c-.05.16-.22.26-.38.21-1.74-.5-3.59-.5-5.33,0-.08.02-.16.01-.23-.03-.07-.04-.12-.11-.15-.19-.02-.08-.01-.16.03-.23.04-.07.11-.12.18-.15,1.85-.53,3.82-.53,5.67,0,.16.05.26.22.21.38"/>
        <path id="Path_331" data-name="Path 331" class="cls-1" d="M8.7,3.45c-.05.16-.22.26-.38.21-1.74-.5-3.59-.5-5.33,0-.16.04-.33-.05-.38-.21-.05-.16.05-.33.21-.38,1.85-.53,3.82-.53,5.67,0,.16.05.26.22.21.38"/>
        <path id="Path_332" data-name="Path 332" class="cls-1" d="M11.15,1.49C9.47.54,7.58.03,5.66,0,3.73.03,1.84.54.16,1.49c-.1.05-.16.16-.16.27v13.25c0,.11.06.21.15.26.09.06.2.06.3.01,1.61-.84,3.39-1.28,5.21-1.31,1.81.02,3.6.47,5.21,1.31.1.05.21.04.3-.01.09-.06.15-.16.15-.26V1.76c0-.11-.06-.22-.16-.27M10.69,14.52l-.26-.11c-1.5-.67-3.13-1.03-4.78-1.04-1.65.01-3.28.37-4.78,1.04l-.26.11V1.95l.1-.05c1.52-.82,3.21-1.25,4.94-1.28,1.72.02,3.42.46,4.94,1.28l.1.05v12.57Z"/>
      </g>
    </g>
  </g>
</svg>