<svg id="Layer_1" data-name="Layer 1" xmlns="http://www.w3.org/2000/svg" viewBox="0 0 46 46"><defs><style>.cls-1{fill:#363636;}</style></defs><path class="cls-1" d="M26,4A23,23,0,1,0,49,27,23,23,0,0,0,26,4ZM39.51,23.39,44.93,18a20.73,20.73,0,0,1,0,18.06l-5.42-5.42a13.54,13.54,0,0,0,0-7.22ZM26,39A12,12,0,1,1,38,27,12,12,0,0,1,26,39ZM35,8.07l-5.41,5.42a13.62,13.62,0,0,0-7.24,0L17,8.07A20.73,20.73,0,0,1,35,8.07ZM7.07,18l5.42,5.42a13.58,13.58,0,0,0,0,7.23L7.07,36A20.73,20.73,0,0,1,7.07,18Zm9.9,28,5.42-5.42a13.54,13.54,0,0,0,7.22,0L35,45.93a20.73,20.73,0,0,1-18.06,0Z" transform="translate(-3 -4)"/></svg>