<svg id="Layer_1" data-name="Layer 1" xmlns="http://www.w3.org/2000/svg" viewBox="0 0 428.02 559.51"><defs><style>.cls-1{fill:#1a4686;}</style></defs><path class="cls-1" d="M297.64,442.7l-44.91-33.3L191,413.1l-25.09-51-53-25.29,4.94-63.46L83.63,230.29l34.19-43.07-4.94-63.46,53-25.29,25.09-51,61.73,3.71,44.91-33.31,44.9,33.31,61.74-3.71,25.09,51,53,25.29-4.94,63.46,34.2,43.07-34.2,43.08,4.94,63.46-53,25.29-25.09,51-61.74-3.7Zm-34.95-66.8,34.95,25.9,34.94-25.9L384.46,379l20.47-41.63,43-20.49-4.19-53.85,26-32.76-26-32.75,4.19-53.85-43-20.49L384.46,81.58,332.58,84.7,297.64,58.78,262.69,84.7l-51.87-3.12L190.35,123.2l-43,20.49,4.2,53.85-26,32.75,26,32.76-4.2,53.85,43,20.49L210.82,379Z" transform="translate(-83.63 -17.88)"/><polygon class="cls-1" points="305.13 431.81 305.13 519.91 214.01 453.67 214.01 453.67 214.01 453.67 122.89 519.91 122.89 431.81 91.16 431.81 91.16 559.51 122.89 559.51 214.01 490.92 214.01 490.91 214.01 490.92 305.13 559.51 336.86 559.51 336.86 431.81 305.13 431.81"/></svg>